<svg xmlns="http://www.w3.org/2000/svg" viewBox="0 0 61 61"><defs><style>.butcls-1{fill:#fff;}</style>
</defs><title>Asset 4</title><g id="Layer_2" data-name="Layer 2"><g id="Hero"><g id="Minue"><g id="close"><path class="butcls-1" d="M35,35H26V26h9Zm-8.82-.14h8.68V26.16H26.16Z"/><path class="butcls-1" d="M35.59,35.59H25.41V25.41H35.59Zm-10-.16h9.86V25.57H25.57Z"/><path class="butcls-1" d="M36.29,36.29H24.71V24.71H36.29ZM24.9,36.1H36.1V24.9H24.9Z"/><path class="butcls-1" d="M37.08,37.08H23.92V23.92H37.08Zm-12.94-.22H36.86V24.14H24.14Z"/><path class="butcls-1" d="M38,38H23V23H38Zm-14.7-.24H37.73V23.27H23.27Z"/><path class="butcls-1" d="M39,39H22V22H39Zm-16.71-.27H38.72V22.28H22.28Z"/><path class="butcls-1" d="M40.15,40.15H20.85V20.85h19.3Zm-19-.31H39.84V21.16H21.16Z"/><path class="butcls-1" d="M41.47,41.47H19.53V19.53H41.47Zm-21.58-.36H41.11V19.89H19.89Z"/><path class="butcls-1" d="M43,43H18V18H43Zm-24.52-.4H42.56V18.44H18.44Z"/><path class="butcls-1" d="M44.66,44.66H16.34V16.34H44.66ZM16.8,44.2H44.2V16.8H16.8Z"/><path class="butcls-1" d="M46.6,46.6H14.4V14.4H46.6Zm-31.67-.53H46.07V14.93H14.93Z"/><path class="butcls-1" d="M48.79,48.79H12.21V12.21H48.79Zm-36-.6H48.19V12.81H12.81Z"/><path class="butcls-1" d="M51.28,51.28H9.72V9.72H51.28ZM10.4,50.6H50.6V10.4H10.4Z"/><path class="butcls-1" d="M54.12,54.12H6.88V6.88H54.12ZM7.66,53.34H53.34V7.66H7.66Z"/><path class="butcls-1" d="M57.34,57.34H3.66V3.66H57.34Zm-52.8-.88H56.46V4.54H4.54Z"/><path class="butcls-1" d="M61,61H0V0H61ZM1,60H60V1H1Z"/></g></g></g></g></svg>