<svg xmlns="http://www.w3.org/2000/svg" viewBox="0 0 526.87 526.87"><defs><style>.cls-1,.cls-2,.cls-3,.cls-4,.cls-5{fill:none;stroke-miterlimit:10;}.cls-1{stroke:lime;}.cls-2,.cls-5{stroke:#fff;}.cls-3{stroke:red;}.cls-4{stroke:blue;}.cls-5{font-size:31.55px;font-family:Iceland-Regular, Iceland;}</style></defs><title>Asset 1</title><g id="Layer_2" data-name="Layer 2"><g id="Hero"><g id="Logo"><line class="cls-1" x1="263.43" y1="35.67" x2="0.43" y2="491.2"/><line class="cls-2" x1="263.43" y1="35.67" x2="526.43" y2="491.2"/><line class="cls-2" x1="263.43" y1="35.67" x2="514.3" y2="437.13"/><line class="cls-2" x1="263.43" y1="35.67" x2="498.74" y2="384.53"/><line class="cls-2" x1="263.43" y1="35.67" x2="479.86" y2="333.55"/><line class="cls-2" x1="263.43" y1="35.67" x2="457.74" y2="284.36"/><line class="cls-1" x1="263.43" y1="35.67" x2="12.57" y2="437.13"/><line class="cls-1" x1="263.43" y1="35.67" x2="28.12" y2="384.53"/><line class="cls-1" x1="263.43" y1="35.67" x2="47.01" y2="333.55"/><line class="cls-1" x1="263.43" y1="35.67" x2="69.13" y2="284.36"/><line class="cls-1" x1="263.43" y1="35.67" x2="41.19" y2="453.66"/><line class="cls-1" x1="263.43" y1="35.67" x2="78.97" y2="413.88"/><line class="cls-1" x1="263.43" y1="35.67" x2="113.67" y2="372.04"/><line class="cls-1" x1="263.43" y1="35.67" x2="145.21" y2="328.29"/><line class="cls-2" x1="263.43" y1="35.67" x2="485.68" y2="453.66"/><line class="cls-2" x1="263.43" y1="35.67" x2="447.9" y2="413.88"/><line class="cls-2" x1="263.43" y1="35.67" x2="413.19" y2="372.04"/><line class="cls-2" x1="263.43" y1="35.67" x2="381.66" y2="328.29"/><line class="cls-3" x1="263.43" y1="491.2" x2="0.43" y2="35.67"/><line class="cls-4" x1="263.43" y1="491.2" x2="526.43" y2="35.67"/><line class="cls-4" x1="263.43" y1="491.2" x2="514.3" y2="89.73"/><line class="cls-4" x1="263.43" y1="491.2" x2="498.74" y2="142.34"/><line class="cls-4" x1="263.43" y1="491.2" x2="479.86" y2="193.32"/><line class="cls-4" x1="263.43" y1="491.2" x2="457.74" y2="242.5"/><line class="cls-3" x1="263.43" y1="491.2" x2="12.57" y2="89.73"/><line class="cls-3" x1="263.43" y1="491.2" x2="28.12" y2="142.34"/><line class="cls-3" x1="263.43" y1="491.2" x2="47.01" y2="193.32"/><line class="cls-3" x1="263.43" y1="491.2" x2="69.13" y2="242.5"/><line class="cls-3" x1="263.43" y1="491.2" x2="41.19" y2="73.21"/><line class="cls-3" x1="263.43" y1="491.2" x2="78.97" y2="112.99"/><line class="cls-3" x1="263.43" y1="491.2" x2="113.67" y2="154.83"/><line class="cls-3" x1="263.43" y1="491.2" x2="145.21" y2="198.58"/><line class="cls-4" x1="263.43" y1="491.2" x2="485.68" y2="73.21"/><line class="cls-4" x1="263.43" y1="491.2" x2="447.9" y2="112.99"/><line class="cls-4" x1="263.43" y1="491.2" x2="413.19" y2="154.83"/><line class="cls-4" x1="263.43" y1="491.2" x2="381.66" y2="198.58"/><line class="cls-3" x1="491.2" y1="263.43" x2="35.67" y2="0.43"/><line class="cls-1" x1="491.2" y1="263.43" x2="35.67" y2="526.43"/><line class="cls-1" x1="491.2" y1="263.43" x2="89.73" y2="514.3"/><line class="cls-1" x1="491.2" y1="263.43" x2="142.34" y2="498.74"/><line class="cls-1" x1="491.2" y1="263.43" x2="193.32" y2="479.86"/><line class="cls-1" x1="491.2" y1="263.43" x2="242.5" y2="457.74"/><line class="cls-3" x1="491.2" y1="263.43" x2="89.73" y2="12.57"/><line class="cls-3" x1="491.2" y1="263.43" x2="142.34" y2="28.12"/><line class="cls-3" x1="491.2" y1="263.43" x2="193.32" y2="47.01"/><line class="cls-3" x1="491.2" y1="263.43" x2="242.5" y2="69.13"/><line class="cls-3" x1="491.2" y1="263.43" x2="73.21" y2="41.19"/><line class="cls-3" x1="491.2" y1="263.43" x2="112.99" y2="78.97"/><line class="cls-3" x1="491.2" y1="263.43" x2="154.83" y2="113.67"/><line class="cls-3" x1="491.2" y1="263.43" x2="198.58" y2="145.21"/><line class="cls-1" x1="491.2" y1="263.43" x2="73.21" y2="485.68"/><line class="cls-1" x1="491.2" y1="263.43" x2="112.99" y2="447.9"/><line class="cls-1" x1="491.2" y1="263.43" x2="154.83" y2="413.19"/><line class="cls-1" x1="491.2" y1="263.43" x2="198.58" y2="381.66"/><line class="cls-4" x1="35.67" y1="263.43" x2="491.2" y2="0.43"/><line class="cls-2" x1="35.67" y1="263.43" x2="491.2" y2="526.43"/><line class="cls-2" x1="35.67" y1="263.43" x2="437.13" y2="514.3"/><line class="cls-2" x1="35.67" y1="263.43" x2="384.53" y2="498.74"/><line class="cls-2" x1="35.67" y1="263.43" x2="333.55" y2="479.86"/><line class="cls-2" x1="35.67" y1="263.43" x2="284.36" y2="457.74"/><line class="cls-4" x1="35.67" y1="263.43" x2="437.13" y2="12.57"/><line class="cls-4" x1="35.67" y1="263.43" x2="384.53" y2="28.12"/><line class="cls-4" x1="35.67" y1="263.43" x2="333.55" y2="47.01"/><line class="cls-4" x1="35.67" y1="263.43" x2="284.36" y2="69.13"/><line class="cls-4" x1="35.67" y1="263.43" x2="453.66" y2="41.19"/><line class="cls-4" x1="35.67" y1="263.43" x2="413.88" y2="78.97"/><line class="cls-4" x1="35.67" y1="263.43" x2="372.04" y2="113.67"/><line class="cls-4" x1="35.67" y1="263.43" x2="328.29" y2="145.21"/><line class="cls-2" x1="35.67" y1="263.43" x2="453.66" y2="485.68"/><line class="cls-2" x1="35.67" y1="263.43" x2="413.88" y2="447.9"/><line class="cls-2" x1="35.67" y1="263.43" x2="372.04" y2="413.19"/><line class="cls-2" x1="35.67" y1="263.43" x2="328.29" y2="381.66"/><text class="cls-5" transform="translate(182.05 271.71)">MALKADACE</text></g></g></g></svg>