<svg xmlns="http://www.w3.org/2000/svg" viewBox="0 0 61 61"><defs><style>.cls-1{fill:none;stroke:#fff;stroke-miterlimit:10;}</style></defs><title>Menu Closed</title><g id="Layer_2" data-name="Layer 2"><g id="Hero"><g id="Minue"><g id="close"><rect class="cls-1" x="26.09" y="26.09" width="8.82" height="8.82"/><rect class="cls-1" x="25.49" y="25.49" width="10.02" height="10.02"/><rect class="cls-1" x="24.81" y="24.81" width="11.39" height="11.39"/><rect class="cls-1" x="24.03" y="24.03" width="12.94" height="12.94"/><rect class="cls-1" x="23.15" y="23.15" width="14.7" height="14.7"/><rect class="cls-1" x="22.14" y="22.14" width="16.71" height="16.71"/><rect class="cls-1" x="21.01" y="21.01" width="18.99" height="18.99"/><rect class="cls-1" x="19.71" y="19.71" width="21.58" height="21.58"/><rect class="cls-1" x="18.24" y="18.24" width="24.52" height="24.52"/><rect class="cls-1" x="16.57" y="16.57" width="27.86" height="27.86"/><rect class="cls-1" x="14.67" y="14.67" width="31.66" height="31.66"/><rect class="cls-1" x="12.51" y="12.51" width="35.98" height="35.98"/><rect class="cls-1" x="10.06" y="10.06" width="40.89" height="40.89"/><rect class="cls-1" x="7.27" y="7.27" width="46.46" height="46.46"/><rect class="cls-1" x="4.1" y="4.1" width="52.8" height="52.8"/><rect class="cls-1" x="0.5" y="0.5" width="60" height="60"/></g></g></g></g></svg>